<!-- Generator: Adobe Illustrator 22.1.0, SVG Export Plug-In . SVG Version: 6.00 Build 0)  -->

<svg version="1.1" id="Layer_3_copy" x="0px" y="0px" viewBox="0 0 800 800" xml:space="preserve" width="800" height="800"
    xmlns="http://www.w3.org/2000/svg" xmlns:svg="http://www.w3.org/2000/svg"
    xmlns:rdf="http://www.w3.org/1999/02/22-rdf-syntax-ns#" xmlns:cc="http://creativecommons.org/ns#"
    xmlns:dc="http://purl.org/dc/elements/1.1/">
    <path
        d="M 690.40942,398.78625 799.64674,219.15156 c 1.13283,-1.86108 -0.64733,-4.04583 -2.67025,-3.3985 L 482.77761,320.13539 c -1.78017,0.56641 -3.56033,-1.13283 -2.913,-2.913 L 584.24694,3.0235085 c 0.64733,-2.02292 -1.53742,-3.80307996 -3.3985,-2.67024996 L 401.21375,109.59058 c -0.72825,0.4855 -1.69925,0.4855 -2.4275,0 L 219.15155,0.35325854 c -1.86108,-1.13283 -4.04582,0.64732996 -3.39849,2.67024996 L 320.13538,317.22239 c 0.56642,1.78017 -1.13283,3.56033 -2.91299,2.913 L 3.0235044,215.75306 c -2.0229132,-0.64733 -3.80307691,1.53742 -2.67024551,3.3985 L 109.59057,398.78625 c 0.4855,0.72825 0.4855,1.69925 0,2.4275 L 0.35325889,580.84845 c -1.1328314,1.86108 0.64733231,4.04582 2.67024551,3.39849 L 317.22239,479.86462 c 1.78016,-0.56642 3.56033,1.13283 2.91299,2.91299 L 215.75306,796.9765 c -0.64733,2.02291 1.53741,3.80307 3.39849,2.67024 l 179.6347,-109.23731 c 0.72825,-0.4855 1.69925,-0.4855 2.4275,0 l 179.63469,109.23731 c 1.86108,1.13283 4.04583,-0.64733 3.3985,-2.67024 L 479.86461,482.77761 c -0.56641,-1.78016 1.13283,-3.56033 2.913,-2.91299 l 314.19888,104.38232 c 2.02292,0.64733 3.80308,-1.53741 2.67025,-3.39849 L 690.40942,401.21375 c -0.40458,-0.72825 -0.40458,-1.69925 0,-2.4275 z"
        id="path2" stroke-width="0.8091653" />
</svg>
