<!-- Created with Inkscape (http://www.inkscape.org/) -->

<svg width="800" height="800" viewBox="0 0 211.66667 211.66667" version="1.1" id="svg8"
    xmlns="http://www.w3.org/2000/svg" xmlns:svg="http://www.w3.org/2000/svg"
    xmlns:rdf="http://www.w3.org/1999/02/22-rdf-syntax-ns#" xmlns:cc="http://creativecommons.org/ns#"
    xmlns:dc="http://purl.org/dc/elements/1.1/">
    <g id="layer1" transform="translate(-37.735163,-24.163893)">
        <path fill="#000000" fill-opacity="1" fill-rule="evenodd" stroke="none" stroke-width="0.41581133"
            d="m 143.5819,24.163893 -21.4687,21.223439 h 11.93021 v 61.578258 l -21.75376,-21.752953 8.43805,-8.438046 -30.191798,0.190037 -0.16324,30.165012 8.411244,-8.411254 21.734264,21.726954 H 58.958601 v -11.9026 l -21.223438,21.44109 21.223438,21.46788 v -11.9026 h 61.578259 l -21.73996,21.73996 -8.424238,-8.42425 0.16324,30.1642 30.191798,0.19084 -8.43805,-8.43804 21.75376,-21.75376 v 61.57826 H 122.1132 l 21.4687,21.22424 21.46789,-21.22424 h -11.92941 v -61.57014 l 21.75295,21.74564 -8.43724,8.43804 30.19181,-0.19084 0.16242,-30.1642 -8.42424,8.42425 -21.73913,-21.73996 h 61.55064 v 11.9026 l 21.22424,-21.46788 -21.22424,-21.44109 v 11.9026 h -61.55146 l 21.72696,-21.726954 8.43723,8.438054 -0.19003,-30.191812 -30.1642,-0.162423 8.42425,8.423426 -21.73996,21.739959 V 45.387332 h 11.92941 z"
            id="path818" />
    </g>
</svg>
