<svg version="1.0" xmlns="http://www.w3.org/2000/svg" width="800.000000pt" height="800.000000pt"
    viewBox="0 0 800.000000 800.000000" preserveAspectRatio="xMidYMid meet">
    <g transform="translate(0.000000,800.000000) scale(0.100000,-0.100000)" fill="#C79017" stroke="none">
        <path d="M7194 7697 c-22 -18 -52 -40 -65 -49 -130 -94 -229 -172 -229 -179 0
-5 -5 -9 -11 -9 -6 0 -54 -33 -107 -73 -53 -40 -139 -104 -189 -142 -51 -39
-93 -73 -93 -77 0 -5 -5 -8 -10 -8 -14 0 -230 -161 -230 -171 0 -5 -5 -9 -11
-9 -6 0 -32 -16 -57 -36 -74 -56 -321 -242 -390 -293 -80 -58 -163 -122 -182
-139 -8 -7 -53 -40 -100 -73 -47 -34 -84 -65 -82 -71 1 -5 -1 -7 -5 -5 -7 5
-86 -49 -134 -91 -7 -7 -59 -45 -114 -85 -137 -98 -335 -248 -357 -269 -10
-10 -19 -17 -21 -15 -4 4 -147 -106 -147 -114 0 -5 -5 -9 -10 -9 -6 0 -81 -53
-166 -117 -86 -65 -173 -129 -193 -143 -43 -29 -64 -46 -99 -80 -14 -14 -21
-18 -17 -10 5 8 -9 0 -31 -18 -78 -66 -84 -70 -84 -65 0 3 -15 -8 -33 -23 -19
-16 -44 -36 -57 -44 -12 -8 -48 -34 -79 -58 -125 -95 -317 -235 -328 -239 -7
-3 -10 -10 -6 -16 3 -5 1 -7 -5 -3 -6 3 -16 0 -24 -7 -7 -7 -52 -41 -100 -77
-49 -35 -88 -68 -88 -73 0 -4 -5 -5 -10 -2 -6 3 -13 -1 -16 -9 -3 -9 -10 -16
-15 -16 -12 0 -179 -123 -179 -132 0 -4 -5 -8 -11 -8 -12 0 -152 -100 -157
-112 -2 -5 -8 -8 -13 -8 -12 0 -163 -110 -167 -122 -2 -4 -8 -8 -14 -8 -6 0
-25 -11 -42 -23 -65 -50 -298 -207 -306 -207 -5 0 -10 -3 -12 -8 -1 -4 -22
-21 -44 -37 -43 -31 -133 -108 -188 -160 -90 -85 -254 -299 -260 -338 -1 -7
-14 -34 -29 -62 -51 -90 -109 -295 -131 -461 l-6 -42 68 70 c353 366 839 374
1082 18 25 -36 45 -67 45 -70 0 -3 10 -30 22 -60 80 -197 85 -452 15 -651 -21
-59 -75 -162 -98 -190 -8 -9 -11 -19 -7 -22 3 -4 2 -7 -4 -7 -6 0 -23 -19 -38
-42 -24 -37 -150 -166 -202 -208 -80 -65 -187 -135 -273 -181 -25 -13 -47 -26
-50 -29 -6 -6 -38 -18 -160 -64 -278 -102 -463 -1 -478 262 -2 50 -7 92 -11
92 -9 0 -141 -29 -181 -39 -104 -28 -119 -34 -113 -44 3 -5 1 -7 -4 -4 -12 8
-99 -28 -124 -50 -9 -7 -27 -16 -40 -18 -73 -14 -316 -232 -325 -291 -1 -7
-10 -21 -20 -31 -62 -62 -120 -399 -74 -428 6 -4 8 -16 4 -27 -9 -31 14 -12
29 23 28 66 146 183 227 224 19 10 38 22 41 27 3 5 8 9 10 7 2 -1 34 6 71 16
290 78 561 -145 547 -452 -12 -249 -266 -452 -566 -453 -100 0 -97 -8 32 -77
84 -45 104 -53 158 -64 26 -5 56 -13 67 -19 99 -53 441 24 575 129 22 17 51
40 65 50 62 48 149 146 199 225 38 62 38 62 -2 70 -95 18 -199 163 -201 280
-4 286 346 427 541 218 l42 -45 53 34 c140 88 324 240 322 265 -1 8 2 11 7 8
25 -15 213 218 312 386 81 138 192 410 201 492 1 13 5 28 8 33 69 114 55 673
-22 940 -46 158 -53 175 -63 168 -6 -3 -7 -1 -3 6 8 12 -91 241 -103 241 -24
0 -43 82 -23 96 12 8 27 20 34 27 7 6 35 28 61 47 27 19 60 44 75 56 52 40
329 249 487 367 88 66 168 129 179 141 10 11 21 20 25 20 10 -2 181 128 181
138 0 4 4 8 10 8 15 0 110 70 110 81 0 5 5 9 10 9 15 0 150 100 150 111 0 5 5
9 10 9 8 0 367 263 495 362 18 14 369 273 412 304 24 17 39 35 35 39 -4 5 -2
6 3 2 9 -5 117 70 320 219 11 8 32 22 47 32 100 64 235 168 231 177 -4 5 -3 7
2 3 9 -8 65 22 65 34 0 4 5 8 11 8 16 0 266 164 351 230 73 57 210 202 204
216 -3 8 -2 13 3 11 52 -15 261 409 351 712 44 151 100 503 79 500 -2 0 -22
-14 -45 -32z" />
        <path d="M7096 6385 c-15 -14 -31 -25 -36 -25 -5 0 -14 -8 -19 -17 -6 -10 -11
-14 -11 -9 0 4 -15 -3 -34 -17 -18 -14 -71 -52 -117 -83 -46 -32 -88 -61 -94
-66 -5 -4 -35 -25 -65 -45 -30 -20 -61 -43 -68 -50 -7 -7 -17 -13 -22 -13 -5
0 -23 -15 -41 -32 -18 -18 -29 -26 -24 -18 5 8 -9 2 -31 -15 -21 -16 -40 -33
-42 -37 -2 -4 -8 -8 -13 -8 -5 0 -36 -19 -69 -42 -33 -24 -82 -59 -110 -78
-28 -19 -57 -39 -63 -45 -7 -5 -39 -28 -72 -50 -33 -22 -93 -63 -132 -92 -40
-29 -75 -53 -78 -53 -5 0 -107 -71 -115 -80 -3 -3 -50 -36 -105 -74 -55 -37
-111 -76 -125 -86 -32 -23 -374 -263 -505 -353 -55 -38 -125 -87 -155 -109
-30 -22 -83 -58 -117 -80 -35 -23 -63 -45 -63 -50 0 -4 -5 -8 -11 -8 -9 0 -36
-18 -129 -85 -15 -11 -60 -41 -99 -68 -40 -26 -78 -52 -84 -57 -13 -11 -181
-128 -336 -235 -56 -38 -166 -115 -244 -170 -78 -55 -153 -108 -167 -118 -14
-9 -50 -33 -80 -53 -98 -64 -94 -53 -43 -157 25 -51 56 -119 68 -152 13 -33
29 -72 35 -87 l12 -26 39 20 c22 11 39 24 39 30 0 5 4 7 8 4 5 -3 24 4 43 16
19 12 68 39 109 60 41 22 80 44 85 48 6 4 39 23 75 43 156 83 338 184 515 287
17 9 57 32 90 51 33 19 72 41 87 49 14 8 55 30 90 49 34 18 115 64 178 100 63
37 177 103 253 145 75 43 137 83 137 89 0 6 3 8 6 4 9 -9 115 50 243 134 41
27 78 49 82 49 10 0 79 41 79 47 0 2 -5 1 -12 -3 -7 -4 -8 -3 -4 4 4 6 14 8
23 5 12 -5 14 -3 8 7 -5 8 -4 11 3 6 11 -7 54 17 180 97 40 26 74 47 77 47 11
0 115 73 115 81 0 5 3 8 8 7 12 -5 112 61 112 74 0 6 3 9 6 5 18 -17 240 186
350 319 49 60 76 98 142 199 52 80 202 425 185 425 -3 0 -1 6 5 13 18 23 96
357 82 357 -4 0 -19 -11 -34 -25z" />
        <path d="M6665 4984 c-44 -25 -120 -68 -170 -94 -174 -94 -195 -107 -189 -112
3 -3 -1 -5 -8 -4 -10 1 -331 -167 -408 -214 -40 -24 -261 -145 -605 -330 -44
-23 -120 -65 -169 -92 -48 -27 -114 -63 -145 -80 -31 -16 -77 -44 -103 -60
-25 -17 -49 -30 -53 -29 -3 1 -34 -13 -68 -32 -34 -19 -98 -54 -142 -77 -44
-24 -91 -50 -105 -59 -14 -10 -38 -22 -53 -29 -15 -6 -78 -40 -140 -75 -62
-35 -157 -88 -212 -117 -55 -29 -104 -56 -110 -60 -5 -4 -59 -33 -120 -65 -60
-32 -114 -61 -119 -65 -4 -5 1 -64 13 -132 11 -67 23 -156 27 -195 8 -84 10
-86 87 -46 29 15 58 28 66 29 8 2 17 6 20 11 3 4 13 9 21 11 8 1 24 6 35 11
79 34 162 70 698 304 26 11 47 23 47 27 0 3 8 6 18 7 9 1 46 15 82 31 105 47
153 68 188 82 17 7 32 17 32 23 0 6 3 8 6 5 3 -4 27 3 52 14 94 41 288 127
342 151 30 13 89 39 130 57 41 18 82 38 90 45 8 6 30 17 47 25 18 7 30 16 27
21 -3 5 1 7 8 4 17 -7 149 71 268 158 164 121 383 360 465 507 11 19 22 37 25
40 31 31 225 452 207 450 -1 0 -38 -21 -82 -46z" />
        <path d="M6099 3789 c-15 -8 -133 -56 -624 -253 -104 -42 -199 -81 -210 -86
-11 -5 -45 -19 -75 -31 -30 -11 -68 -26 -85 -34 -16 -7 -73 -30 -125 -51 -52
-21 -97 -41 -100 -44 -3 -3 -12 -6 -20 -7 -8 -2 -71 -26 -140 -54 -69 -28
-231 -93 -360 -146 -129 -53 -273 -111 -320 -130 -47 -19 -107 -44 -135 -54
-119 -47 -111 -38 -119 -136 -7 -90 -26 -216 -46 -311 -15 -68 -25 -66 120
-25 69 19 148 41 175 48 48 12 122 35 362 111 62 20 116 40 119 45 3 5 9 7 14
4 11 -7 362 116 550 192 194 78 427 207 505 279 12 11 45 39 75 64 67 55 115
106 115 123 1 6 6 11 12 10 6 -1 21 9 33 22 13 14 21 25 17 25 -3 0 10 17 31
38 39 40 152 204 152 221 0 5 4 11 9 13 12 4 83 148 74 148 -5 0 -1 4 7 10 19
12 9 21 -11 9z" />
        <path d="M5260 2658 c-300 -80 -618 -163 -865 -228 -66 -17 -127 -34 -135 -37
-8 -3 -24 -7 -35 -8 -11 -2 -81 -20 -155 -40 -74 -21 -169 -46 -210 -57 -41
-10 -82 -22 -90 -25 -8 -3 -26 -8 -39 -10 -42 -7 -56 -20 -69 -65 -8 -23 -42
-103 -78 -177 l-64 -134 87 7 c49 4 122 9 163 11 41 3 95 7 120 9 25 3 79 8
120 11 593 51 853 142 1076 378 103 109 123 138 203 292 52 99 54 96 -29 73z" />
    </g>
</svg>
