<svg version="1.0" width="800.000000pt" height="800.000000pt" viewBox="0 0 800.000000 800.000000"
    preserveAspectRatio="xMidYMid meet" id="svg22" xmlns="http://www.w3.org/2000/svg"
    xmlns:svg="http://www.w3.org/2000/svg">
    <g transform="translate(0.000000,800.000000) scale(0.100000,-0.100000)" fill="#000000" stroke="none" id="g20">
        <path
            d="M3709 7739 c-1705 -131 -3122 -1423 -3404 -3104 -430 -2558 1783 -4768 4335 -4329 2145 368 3528 2497 2995 4614 -444 1764 -2108 2959 -3926 2819z m696 -304 c2556 -309 3896 -3192 2480 -5340 -1053 -1598 -3211 -2035 -4802 -973 -1469 981 -1964 2896 -1155 4468 654 1271 2059 2017 3477 1845z"
            id="path4" />
        <path
            d="M3446 6785 c-143 -51 -175 -187 -142 -616 l8 -105 176 -74 c98 -40 240 -99 317 -131 l140 -59 21 24 c42 47 67 545 35 690 -29 132 -86 210 -186 258 -71 33 -291 41 -369 13z"
            id="path6" />
        <path
            d="M2635 6715 c-137 -30 -257 -95 -346 -186 l-49 -50 0 -117 c0 -218 28 -362 130 -674 74 -228 89 -244 163 -186 176 138 577 459 581 466 6 11 -58 392 -84 491 -61 240 -165 307 -395 256z"
            id="path8" />
        <path
            d="M4400 6569 c-116 -20 -201 -97 -235 -212 -42 -143 -69 -627 -35 -627 4 0 122 -54 261 -121 347 -165 325 -157 354 -128 36 37 140 374 180 580 58 303 20 423 -154 491 -64 24 -273 34 -371 17z"
            id="path10" />
        <path
            d="M5250 6265 c-192 -46 -346 -492 -338 -979 4 -295 32 -350 188 -375 165 -27 261 -5 308 71 133 215 337 670 369 822 63 300 -209 538 -527 461z"
            id="path12" />
        <path
            d="M3018 5692 c-151 -125 -373 -308 -493 -407 -121 -99 -235 -194 -254 -211 l-34 -30 13 -55 c130 -553 281 -705 700 -703 352 1 484 115 597 517 38 137 50 167 62 162 9 -4 79 -21 156 -40 471 -113 653 -109 769 15 80 85 222 339 201 359 -8 7 -830 360 -1372 589 l-71 30 -274 -226z"
            id="path14" />
        <path
            d="M4805 5023 c-24 -4 -44 -23 -100 -95 -181 -234 -405 -269 -846 -132 -181 56 -179 57 -244 -185 -77 -289 -127 -347 -350 -407 -97 -26 -418 -26 -549 -1 -98 20 -93 22 -132 -48 l-16 -30 164 -290 163 -290 1076 -3 1075 -2 183 586 c114 366 181 594 177 608 -5 21 -12 23 -158 32 -223 15 -303 58 -370 202 -17 34 -33 61 -36 60 -4 0 -20 -3 -37 -5z"
            id="path16" />
        <path
            d="M2773 3183 c-367 -528 -780 -1140 -860 -1278 -99 -169 -154 -155 606 -155 l639 0 126 -64 c311 -157 544 -413 665 -728 17 -45 88 -41 104 5 108 302 372 585 690 737 l102 50 636 0 c668 0 659 -1 659 45 0 11 -235 372 -522 802 l-523 782 -1092 1 -1092 0 -138 -197z"
            id="path18" />
    </g>
</svg>
