<svg version="1.0" xmlns="http://www.w3.org/2000/svg" width="800.000000pt" height="800.000000pt"
    viewBox="0 0 800.000000 800.000000" preserveAspectRatio="xMidYMid meet">
    <g transform="translate(0.000000,800.000000) scale(0.100000,-0.100000)" fill="#000000" stroke="none">
        <path
            d="M3760 7723 c-261 -42 -514 -100 -737 -169 -147 -46 -302 -107 -312 -123 -3 -5 -5 -241 -3 -524 l2 -514 263 -180 c322 -222 591 -401 623 -415 21 -10 35 -3 139 77 l115 87 0 862 c0 473 -3 871 -6 884 -6 22 -22 25 -84 15z" />
        <path
            d="M4165 7668 c-3 -35 -5 -434 -3 -887 l3 -824 89 -68 c48 -37 103 -75 121 -85 l33 -17 68 45 c38 25 168 113 289 196 121 83 291 199 378 259 l157 107 0 522 0 522 -92 37 c-234 94 -567 183 -876 235 -172 28 -159 31 -167 -42z" />
        <path
            d="M5586 7262 c-3 -3 -6 -206 -6 -451 l1 -446 212 -141 c117 -78 215 -140 220 -137 4 2 7 197 7 434 l0 429 -77 57 c-43 31 -140 103 -215 159 -75 56 -139 100 -142 96z" />
        <path
            d="M2198 7105 l-208 -154 0 -436 c0 -239 2 -435 5 -435 3 0 100 63 215 140 l210 140 0 450 c0 248 -3 450 -7 450 -5 0 -101 -70 -215 -155z" />
        <path
            d="M5304 6072 c-66 -48 -261 -188 -432 -311 l-312 -224 0 -159 c0 -87 2 -158 5 -158 3 0 148 97 323 216 174 119 336 227 359 241 l42 24 178 -124 c372 -260 374 -261 476 -282 l58 -13 10 27 c7 17 8 97 3 226 l-7 200 -101 76 c-223 168 -458 341 -469 344 -7 3 -66 -35 -133 -83z" />
        <path
            d="M2504 6107 c-34 -23 -163 -118 -288 -211 l-226 -170 0 -212 c0 -164 3 -214 13 -223 14 -11 81 2 147 27 32 13 193 119 395 262 88 62 165 115 172 117 7 3 54 -24 105 -59 51 -36 179 -123 283 -193 105 -71 222 -150 260 -177 l70 -47 3 151 c1 84 1 157 -2 163 -3 10 -162 125 -727 532 -64 46 -122 83 -130 82 -8 0 -42 -19 -75 -42z" />
        <path
            d="M3849 5644 c-73 -56 -127 -105 -130 -119 -4 -12 -8 -69 -10 -126 l-4 -104 280 0 280 0 3 120 3 121 -108 80 c-138 103 -169 124 -181 124 -5 0 -65 -43 -133 -96z" />
        <path
            d="M2532 5238 c-84 -66 -152 -121 -150 -123 29 -22 651 -475 671 -488 33 -21 34 -21 117 57 211 199 216 204 200 220 -28 26 -653 449 -669 452 -9 2 -85 -51 -169 -118z" />
        <path
            d="M5005 5159 c-159 -110 -312 -215 -338 -233 l-48 -33 128 -123 c70 -67 140 -130 154 -141 l26 -18 69 47 c80 55 445 320 552 400 40 30 72 58 70 63 -5 13 -299 239 -312 239 -6 -1 -141 -91 -301 -201z" />
        <path
            d="M3707 5013 c-4 -3 -7 -218 -7 -478 l0 -471 33 -30 c17 -17 85 -72 150 -123 103 -82 119 -92 135 -80 28 21 112 97 185 167 l67 64 0 479 0 479 -278 0 c-153 0 -282 -3 -285 -7z" />
        <path
            d="M2042 4892 l-53 -47 3 -324 3 -324 120 -89 c237 -175 332 -244 485 -351 85 -60 160 -111 167 -114 6 -2 162 109 347 247 l336 251 0 206 c0 163 -3 203 -12 196 -194 -150 -329 -243 -353 -243 -13 0 -129 76 -783 517 -101 68 -188 123 -195 123 -7 0 -36 -22 -65 -48z" />
        <path
            d="M5437 4637 c-249 -167 -468 -313 -488 -325 l-37 -22 -168 125 c-93 68 -173 123 -179 121 -6 -1 -11 -78 -13 -197 l-2 -194 345 -259 346 -259 22 20 c12 11 187 140 390 287 l367 268 0 318 0 318 -52 51 c-29 28 -59 51 -66 51 -7 0 -216 -136 -465 -303z" />
        <path
            d="M1990 2906 l0 -953 53 -49 c28 -26 114 -108 190 -181 76 -73 142 -133 148 -133 7 0 9 330 7 991 l-3 991 -26 21 c-43 36 -358 267 -364 267 -3 0 -5 -429 -5 -954z" />
        <path
            d="M5900 3780 c-52 -39 -137 -100 -187 -138 l-93 -67 0 -999 0 -1000 33 29 c17 16 107 104 200 195 l167 165 0 785 c0 749 -6 1101 -19 1100 -3 -1 -49 -32 -101 -70z" />
        <path
            d="M4323 3712 l-163 -117 0 -182 0 -183 180 0 179 0 58 -47 c32 -26 118 -96 191 -156 l132 -109 0 -1014 c0 -558 3 -1014 8 -1013 4 0 91 93 195 207 l187 207 0 970 0 970 -88 65 c-48 35 -121 89 -162 119 -41 30 -97 71 -125 91 -172 126 -426 310 -428 309 -1 0 -75 -53 -164 -117z" />
        <path
            d="M3474 3790 c-42 -24 -248 -172 -681 -489 l-73 -53 0 -974 0 -974 188 -204 187 -205 6 417 c3 229 7 686 8 1014 l1 597 88 73 c48 41 133 111 188 156 l101 82 180 0 181 0 -5 178 c-2 97 -6 182 -8 188 -3 11 -250 190 -292 212 -15 9 -30 5 -69 -18z" />
        <path
            d="M3495 2854 l-90 -65 4 -232 c1 -128 4 -234 6 -235 2 -2 58 37 124 87 l121 92 337 -9 338 -9 115 -92 115 -92 3 78 c1 43 -1 149 -5 237 l-8 159 -100 73 -100 73 -385 0 -385 -1 -90 -64z" />
        <path
            d="M3640 2049 c-102 -72 -195 -140 -207 -152 l-22 -22 -7 -630 -7 -630 207 -173 c118 -98 208 -166 211 -159 4 12 25 1489 25 1750 0 81 -3 147 -7 147 -5 0 -91 -59 -193 -131z" />
        <path
            d="M4172 1353 c8 -823 14 -1073 27 -1073 10 0 395 320 404 335 4 8 3 296 -1 640 -8 511 -12 629 -23 640 -25 25 -394 284 -404 285 -7 0 -8 -278 -3 -827z" />
    </g>
</svg>
