<svg version="1.0" width="800.000000pt" height="800.000000pt" viewBox="0 0 800.000000 800.000000"
    preserveAspectRatio="xMidYMid meet" id="svg8" xmlns="http://www.w3.org/2000/svg"
    xmlns:svg="http://www.w3.org/2000/svg">
    <g transform="translate(0.000000,800.000000) scale(0.100000,-0.100000)" fill="#576541" stroke="none" id="g6">
        <path
            d="M6761 7184 c-17 -7 -122 -80 -234 -162 -644 -472 -1017 -724 -1109 -746 -103 -24 -134 91 -92 339 33 192 -55 203 -141 18 -81 -175 -200 -320 -385 -471 -58 -48 -154 -129 -215 -182 -271 -238 -401 -313 -645 -376 -260 -67 -346 -4 -250 182 84 162 29 207 -104 86 -34 -31 -121 -104 -191 -162 -344 -280 -661 -629 -912 -1005 -171 -257 -324 -430 -573 -648 -460 -403 -634 -455 -826 -244 l-59 65 -69 -132 c-38 -72 -109 -194 -159 -271 -204 -315 -252 -397 -322 -540 -241 -493 -282 -877 -115 -1059 164 -178 600 -181 600 -4 0 140 75 172 321 138 176 -25 312 -13 416 36 65 31 64 35 -18 96 -128 94 -141 108 -135 142 10 46 44 74 106 86 57 11 83 9 280 -17 111 -14 240 -12 268 6 9 5 -6 24 -46 59 -247 214 -141 327 305 327 l211 0 -16 29 c-9 15 -65 79 -123 140 -139 147 -146 186 -45 272 136 118 337 170 542 140 500 -73 744 -233 744 -487 0 -396 -553 -641 -1074 -475 -42 13 -76 21 -76 17 0 -36 41 -111 91 -166 73 -81 75 -99 13 -154 -84 -74 -205 -100 -495 -108 l-216 -6 10 -34 c7 -21 28 -49 50 -67 99 -79 107 -88 107 -116 0 -153 -327 -211 -768 -135 l-33 6 16 -38 c23 -54 51 -81 123 -115 141 -67 163 -181 41 -207 -70 -15 -108 -3 -253 80 -148 85 -142 86 -106 -12 102 -279 283 -475 450 -487 127 -9 183 13 440 173 772 479 1667 918 2542 1246 328 123 313 120 568 118 244 -3 257 0 337 74 158 145 131 337 -69 494 -246 194 436 474 1192 490 249 5 260 8 260 68 0 43 13 35 -311 198 -381 191 -461 245 -511 341 -64 125 33 290 197 335 42 12 602 41 788 41 151 0 206 26 179 84 -13 30 -80 62 -297 142 -894 330 -909 358 -404 724 416 300 668 463 958 621 124 68 160 93 188 128 112 148 29 138 -512 -63 -1488 -550 -1685 -603 -1685 -450 0 121 406 691 671 941 271 256 567 520 633 566 70 48 26 124 -53 91z m-3541 -2340 c29 -76 14 -112 -117 -293 -281 -386 -408 -505 -568 -531 -58 -9 -152 -4 -174 9 -7 5 76 93 211 227 123 120 313 308 423 416 217 214 211 210 225 172z"
            id="path4" />
    </g>
</svg>
