<svg version="1.0" width="800.000000pt" height="800.000000pt" viewBox="0 0 800.000000 800.000000"
    preserveAspectRatio="xMidYMid meet" id="svg10" xmlns="http://www.w3.org/2000/svg"
    xmlns:svg="http://www.w3.org/2000/svg">
    <g transform="translate(0.000000,800.000000) scale(0.100000,-0.100000)" fill="#000000" stroke="none" id="g8">
        <path
            d="M4058 6878 c89 -428 -60 -965 -374 -1354 l-74 -91 -222 -6 c-361 -8 -487 -42 -898 -241 -140 -69 -315 -151 -388 -184 -303 -137 -405 -239 -373 -374 11 -51 11 -53 -16 -80 -36 -36 -297 -125 -477 -163 -139 -30 -167 -43 -536 -248 -558 -310 -565 -347 -146 -731 55 -50 150 -142 210 -205 133 -137 477 -391 530 -391 2 0 1 65 -2 145 -7 221 13 246 134 160 63 -45 184 -108 192 -100 2 2 -1 41 -7 86 -29 219 -11 250 99 174 109 -77 217 -99 206 -42 -33 181 -20 205 71 131 92 -75 234 -116 219 -63 -44 155 8 320 106 336 184 28 457 -380 344 -515 -63 -73 -261 -71 -459 6 -42 16 -77 27 -77 24 0 -3 10 -37 22 -75 40 -123 -51 -128 -276 -15 -43 22 -80 38 -82 36 -5 -5 23 -126 40 -173 36 -101 -130 -93 -313 14 -61 36 -60 41 -9 -89 116 -297 365 -526 676 -624 110 -34 112 -34 60 22 -198 212 -53 356 174 173 87 -70 128 -88 214 -97 74 -8 79 0 24 38 -67 46 -132 184 -113 238 28 81 222 35 371 -89 l58 -48 69 65 c469 438 1151 443 1607 14 38 -36 70 -63 72 -61 31 30 69 305 65 462 l-4 136 57 -31 c54 -29 127 -97 174 -163 l21 -30 31 130 c43 176 62 337 62 512 l0 146 64 -6 c77 -7 186 -44 274 -92 80 -44 78 -48 53 77 -11 56 -30 159 -41 228 -38 233 -88 352 -211 504 -62 77 -70 91 -67 124 l3 37 81 -3 c77 -3 83 -2 102 22 65 84 86 858 28 1085 -34 133 -33 132 -68 70 -29 -50 -118 -149 -135 -149 -4 0 -8 60 -9 133 -1 195 -65 381 -205 595 l-54 83 -13 -62 c-17 -86 -47 -143 -104 -203 -56 -59 -54 -60 -72 36 -66 343 -285 636 -590 784 -118 58 -116 59 -98 -28z m-1493 -2255 c-29 -194 -190 -291 -345 -207 -96 52 -96 53 27 127 139 83 162 94 225 111 95 26 101 24 93 -31z"
            id="path4" />
        <path
            d="M6125 5569 c-157 -161 -363 -325 -493 -394 l-57 -31 2 -59 c5 -154 -30 -442 -73 -606 l-25 -95 65 -265 c130 -526 159 -797 89 -824 -11 -3 -45 12 -92 41 -154 96 -286 162 -297 151 -4 -3 -12 -73 -20 -154 -61 -663 -149 -839 -280 -560 -21 44 -39 77 -40 71 -2 -5 -10 -70 -19 -144 -30 -256 -69 -402 -120 -450 -33 -31 -49 -22 -141 78 -238 257 -623 393 -975 343 -128 -18 -121 -13 -95 -74 126 -286 -34 -580 -345 -637 -35 -7 -80 -15 -99 -19 l-34 -7 78 -61 c135 -105 324 -183 481 -199 75 -8 72 -1 54 -130 -27 -193 -173 -426 -305 -486 -131 -60 405 -3 651 69 1325 386 2941 1806 3447 3028 118 283 189 515 263 852 5 19 -4 17 -108 -29 -215 -95 -492 -186 -679 -223 -46 -9 -91 -19 -100 -21 -15 -4 -13 5 12 58 62 132 94 342 76 492 l-7 55 -67 -54 c-185 -149 -418 -245 -640 -262 -80 -6 -84 -5 -78 13 47 150 68 369 52 527 -9 81 -8 81 -81 6z"
            id="path6" />
    </g>
</svg>
