<svg version="1.0" width="800.000000pt" height="800.000000pt" viewBox="0 0 800.000000 800.000000"
    preserveAspectRatio="xMidYMid meet" id="svg8" xmlns="http://www.w3.org/2000/svg"
    xmlns:svg="http://www.w3.org/2000/svg">
    <g transform="translate(0.000000,800.000000) scale(0.100000,-0.100000)" fill="#a81722" stroke="none" id="g6">
        <path
            d="M4293 7508 c-255 -414 -549 -892 -713 -1158 -86 -140 -232 -378 -324 -528 l-168 -273 -42 5 c-22 3 -86 8 -141 11 -554 33 -1162 175 -1749 409 -105 41 -191 74 -192 73 0 -1 16 -90 37 -197 102 -524 144 -1200 101 -1630 -30 -302 -57 -491 -107 -753 -14 -70 -25 -134 -25 -142 0 -11 30 -3 128 31 585 210 1122 333 1699 391 95 10 175 15 178 11 3 -3 -42 -84 -101 -179 -299 -483 -452 -734 -450 -737 2 -1 187 76 411 173 225 96 410 173 411 172 2 -1 -68 -119 -153 -262 -86 -143 -471 -783 -855 -1423 -384 -639 -705 -1175 -715 -1190 -29 -48 -68 -90 962 1058 412 459 891 993 1065 1186 173 192 468 521 655 730 187 208 365 406 396 438 l56 60 223 -13 c702 -38 1300 -160 2009 -410 79 -28 145 -51 146 -51 1 0 -11 63 -26 141 -167 843 -169 1580 -5 2424 18 94 32 171 31 173 -1 1 -46 -16 -101 -38 -466 -191 -1165 -390 -1364 -390 -21 0 -15 8 316 404 83 100 150 183 148 184 -1 2 -204 -71 -450 -162 -246 -91 -449 -165 -450 -163 -2 2 151 191 949 1172 116 143 289 355 384 472 95 116 173 214 173 217 0 3 -494 6 -1099 6 l-1098 0 -150 -242z m-2892 -1884 c185 -63 427 -130 609 -169 63 -14 135 -29 160 -35 134 -30 394 -65 718 -96 l52 -5 -24 -42 c-14 -22 -31 -48 -39 -57 -7 -9 -16 -23 -19 -32 -4 -9 -57 -96 -118 -194 -131 -210 -148 -239 -129 -232 8 3 104 38 214 77 110 40 234 85 275 101 41 15 165 60 275 100 110 39 267 97 348 127 168 64 169 64 122 -3 -19 -27 -35 -54 -35 -61 0 -6 -3 -13 -7 -15 -8 -3 -83 -122 -126 -198 -10 -19 -42 -71 -70 -115 -27 -44 -68 -109 -90 -145 -22 -36 -47 -76 -56 -90 -8 -14 -36 -59 -61 -100 -26 -41 -70 -113 -100 -160 -29 -47 -62 -101 -74 -121 -11 -19 -37 -61 -56 -92 l-35 -57 -52 0 c-100 0 -504 -41 -678 -69 -180 -29 -320 -55 -400 -73 -231 -52 -462 -112 -587 -152 -83 -26 -138 -39 -138 -32 0 6 9 72 20 147 42 296 54 482 54 839 0 358 -15 600 -54 840 -20 125 -23 163 -11 155 7 -4 57 -22 112 -41z m5305 -70 c-80 -572 -84 -1075 -15 -1652 11 -89 22 -176 26 -192 7 -37 10 -37 -128 4 -334 101 -654 174 -959 221 -58 8 -132 20 -165 25 -89 13 -230 28 -405 40 -85 6 -165 12 -177 13 -19 2 -10 15 60 88 45 48 93 100 106 115 13 16 47 54 75 84 47 52 133 149 216 245 19 22 54 60 77 85 60 64 66 66 -218 -68 -134 -64 -240 -112 -245 -112 -2 0 -48 -21 -102 -46 -53 -25 -110 -52 -127 -59 -16 -7 -100 -46 -185 -85 -85 -39 -162 -74 -170 -78 -11 -4 121 162 150 188 3 3 25 30 50 60 24 30 62 75 85 100 22 25 83 99 135 164 52 65 100 124 105 130 6 6 53 63 105 126 51 63 97 117 100 120 4 3 28 32 55 65 155 194 176 215 215 215 50 0 348 47 503 80 239 50 266 57 462 114 105 31 204 60 220 65 17 5 59 20 95 33 80 30 74 40 56 -88z"
            id="path4" />
        <g fill="#d8b42c">
            <path
                d="M1285 5619 c3 -30 10 -79 15 -109 75 -464 75 -1150 0 -1679 -11 -75 -20 -141 -20 -147 0 -7 55 6 138 32 125 40 356 100 587 152 80 18 220 44 400 73 174 28 578 69 678 69 l52 0 35 57 c19 31 45 73 56 92 12 20 45 74 74 121 30 47 74 119 100 160 25 41 53 86 61 100 9 14 34 54 56 90 22 36 63 101 90 145 28 44 60 96 70 115 43 76 118 195 126 198 4 2 7 9 7 15 0 7 16 34 35 61 47 67 46 67 -122 3 -81 -30 -238 -88 -348 -127 -110 -40 -234 -85 -275 -100 -41 -16 -165 -61 -275 -101 -110 -39 -206 -74 -214 -77 -19 -7 -2 22 129 232 61 98 114 185 118 194 3 9 12 23 19 32 8 9 25 35 39 57 l24 42 -52 5 c-324 31 -584 66 -718 96 -25 6 -97 21 -160 35 -224 48 -668 178 -721 210 -8 6 -9 -6 -4 -46z"
                id="path4" />
            <path
                d="M6650 5642 c-36 -13 -78 -28 -95 -33 -16 -5 -115 -34 -220 -65 -196 -57 -223 -64 -462 -114 -155 -33 -453 -80 -503 -80 -39 0 -60 -21 -215 -215 -27 -33 -51 -62 -55 -65 -3 -3 -49 -57 -100 -120 -52 -63 -99 -120 -105 -126 -5 -6 -53 -65 -105 -130 -52 -65 -113 -139 -135 -164 -23 -25 -61 -70 -85 -100 -25 -30 -47 -57 -50 -60 -29 -26 -161 -192 -150 -188 8 4 85 39 170 78 85 39 169 78 185 85 17 7 74 34 127 59 54 25 100 46 102 46 5 0 111 48 245 112 284 134 278 132 218 68 -23 -25 -58 -63 -77 -85 -83 -96 -169 -193 -216 -245 -28 -30 -62 -68 -75 -84 -13 -15 -61 -67 -106 -115 -70 -73 -79 -86 -60 -88 12 -1 92 -7 177 -13 175 -12 316 -27 405 -40 33 -5 107 -17 165 -25 305 -47 625 -120 959 -221 138 -41 135 -41 128 -4 -10 48 -44 343 -59 500 -8 85 -13 278 -13 470 1 364 11 520 61 874 18 128 24 118 -56 88z"
                id="path6" />
        </g>
    </g>
</svg>
