<svg version="1.0" width="800.000000pt" height="800.000000pt" viewBox="0 0 800.000000 800.000000"
    preserveAspectRatio="xMidYMid meet" id="svg8" xmlns="http://www.w3.org/2000/svg"
    xmlns:svg="http://www.w3.org/2000/svg">
    <g transform="translate(0.000000,800.000000) scale(0.100000,-0.100000)" fill="#b98440" stroke="none" id="g6">
        <path
            d="M3925 7654 c-38 -46 -77 -92 -85 -101 -8 -9 -144 -168 -301 -352 l-286 -336 148 -3 149 -3 -2 -461 -3 -462 -35 -8 c-19 -5 -39 -10 -45 -12 -5 -2 -14 -5 -20 -6 -101 -25 -337 -125 -437 -186 l-60 -37 -189 189 c-104 104 -189 193 -189 199 0 5 46 56 102 112 98 99 101 103 72 103 -34 0 -991 76 -1072 86 l-53 6 6 -49 c3 -26 23 -277 45 -558 22 -280 41 -518 43 -527 1 -12 32 13 104 82 56 55 106 100 110 100 5 0 93 -85 196 -188 l188 -189 -56 -100 c-52 -94 -149 -324 -158 -375 -2 -13 -7 -30 -10 -38 -3 -8 -10 -31 -15 -50 l-8 -35 -462 -3 -462 -2 0 151 0 151 -63 -53 c-34 -30 -64 -56 -67 -59 -3 -3 -32 -27 -65 -55 -33 -27 -62 -52 -65 -55 -3 -3 -50 -44 -105 -90 -172 -145 -299 -253 -320 -272 -11 -10 -58 -50 -105 -89 -99 -84 -98 -82 -66 -103 14 -9 33 -24 43 -34 10 -10 61 -54 113 -97 52 -43 97 -81 100 -84 3 -4 68 -60 145 -125 77 -65 151 -128 165 -140 14 -11 54 -46 90 -76 35 -30 80 -69 100 -86 19 -18 50 -44 67 -59 l33 -27 0 151 0 151 461 -2 462 -3 22 -80 c47 -167 113 -326 189 -455 l37 -63 -188 -189 c-103 -103 -192 -188 -198 -188 -5 0 -56 46 -112 102 -96 96 -103 101 -103 74 0 -29 -75 -976 -85 -1074 l-5 -52 52 5 c93 10 1043 85 1072 85 26 0 21 7 -71 105 -54 58 -99 109 -101 113 -1 4 83 92 187 196 l189 189 58 -36 c123 -73 289 -144 444 -188 l95 -26 3 -462 2 -461 -151 0 -150 0 78 -92 c42 -51 132 -156 198 -233 66 -77 154 -180 195 -229 41 -49 112 -131 156 -182 45 -51 91 -106 103 -121 l21 -28 17 21 c23 28 169 202 197 234 12 14 89 104 171 200 83 96 199 232 258 303 l108 127 -150 0 -151 0 0 460 c0 360 3 461 13 465 6 2 53 15 103 29 112 31 303 111 408 172 l79 46 188 -188 c104 -104 189 -191 189 -194 0 -3 -45 -52 -101 -110 -74 -77 -95 -106 -82 -107 10 -2 189 -16 398 -33 209 -17 459 -36 555 -44 96 -8 176 -13 177 -12 1 1 -11 163 -28 361 -16 198 -36 448 -44 555 -9 107 -16 204 -18 215 -1 16 -24 -2 -101 -82 -55 -57 -104 -103 -110 -103 -6 0 -96 85 -200 189 l-188 188 46 79 c61 105 141 296 172 408 14 50 27 97 29 104 4 9 105 12 464 12 l460 0 3 -149 3 -149 101 87 c55 47 124 106 154 131 30 25 104 88 164 140 61 52 120 102 131 111 101 84 320 273 322 278 1 3 -31 33 -70 67 -40 33 -196 166 -347 294 -151 129 -317 269 -367 312 l-93 79 0 -151 0 -150 -461 2 -462 3 -26 95 c-38 132 -102 287 -167 404 l-55 99 188 189 c103 103 192 188 196 188 5 0 55 -46 113 -102 98 -96 104 -100 104 -72 0 16 7 115 15 219 54 661 73 900 71 902 -1 1 -49 -2 -106 -7 -58 -5 -253 -21 -435 -36 -181 -14 -393 -31 -469 -37 l-139 -12 101 -100 c56 -54 102 -104 102 -110 0 -5 -84 -95 -188 -198 l-187 -187 -100 55 c-130 71 -279 131 -450 178 l-50 14 -3 462 -2 461 151 0 151 0 -54 63 c-29 34 -57 67 -63 73 -5 6 -55 64 -110 130 -55 65 -120 141 -145 169 -25 28 -119 140 -210 248 -91 108 -167 196 -170 196 -3 0 -36 -38 -75 -85z m103 -2491 c24 -53 67 -157 117 -278 18 -44 45 -106 59 -137 14 -31 26 -62 26 -67 0 -21 15 -10 50 37 19 25 42 56 51 67 27 33 150 188 213 270 33 41 62 72 66 68 4 -4 61 -223 126 -486 108 -435 120 -475 131 -450 7 15 42 105 77 198 137 360 208 540 215 548 11 11 121 -153 175 -262 210 -417 209 -926 -1 -1345 -54 -109 -163 -270 -174 -259 -6 6 -208 523 -280 717 -10 27 -20 50 -21 52 -2 1 -57 -213 -123 -477 -65 -264 -122 -482 -126 -485 -6 -3 -171 201 -309 384 -30 39 -57 72 -60 72 -3 0 -45 -96 -94 -213 -123 -294 -138 -327 -146 -327 -4 0 -33 62 -65 138 -32 75 -70 164 -85 197 -15 33 -40 93 -56 132 -35 88 -27 90 -116 -28 -168 -222 -281 -360 -288 -352 -4 4 -61 223 -126 486 -109 436 -120 475 -131 450 -11 -24 -141 -362 -253 -656 -43 -114 -37 -115 -122 11 -340 504 -333 1189 18 1689 32 45 61 79 65 75 3 -4 29 -65 57 -137 27 -71 71 -183 96 -247 25 -64 66 -172 91 -239 25 -67 49 -128 53 -135 4 -7 61 201 126 464 65 262 122 481 126 485 4 5 36 -29 71 -75 35 -45 99 -128 144 -183 44 -55 96 -122 115 -147 45 -61 37 -66 94 70 27 64 59 140 71 167 12 28 41 96 65 153 50 118 50 117 78 55z"
            id="path4" />
    </g>
</svg>
